<?xml version="1.0" encoding="utf-8"?>
<!-- Generator: Adobe Illustrator 26.1.0, SVG Export Plug-In . SVG Version: 6.00 Build 0)  -->
<svg version="1.1" id="Layer_1" xmlns="http://www.w3.org/2000/svg" xmlns:xlink="http://www.w3.org/1999/xlink" x="0px" y="0px"
	 viewBox="0 0 512 512" style="enable-background:new 0 0 512 512;" xml:space="preserve">
<style type="text/css">
	.st0{fill:#B4BBCC;}
	.st1{fill:#FFFFFF;}
	.st2{opacity:0.1;enable-background:new    ;}
</style>
<path class="st0" d="M398.8,62.2H113.2c-28.2,0-51.1,22.9-51.1,51.1v285.6c0,28.2,22.9,51.1,51.1,51.1h285.6
	c28.2,0,51.1-22.9,51.1-51.1V113.3C449.9,85.1,427.1,62.2,398.8,62.2z"/>
<path class="st1" d="M375.5,113.9h-239c-12.6,0-22.7,10.2-22.7,22.7v238.9c0,12.6,10.2,22.7,22.7,22.7h238.9
	c12.6,0,22.7-10.2,22.7-22.7V136.7C398.2,124.1,388,113.9,375.5,113.9z"/>
<path class="st2" d="M136.7,159.6c0-12.6,10.2-22.7,22.7-22.7h238.7v-0.2c0-12.6-10.2-22.7-22.7-22.7H136.5
	c-12.6,0-22.7,10.2-22.7,22.7v238.9c0,12.6,10.2,22.7,22.7,22.7h0.2V159.6z"/>
</svg>
