<?xml version="1.0" encoding="utf-8"?>
<!-- Generator: Adobe Illustrator 26.1.0, SVG Export Plug-In . SVG Version: 6.00 Build 0)  -->
<svg version="1.1" id="Layer_1" xmlns="http://www.w3.org/2000/svg" xmlns:xlink="http://www.w3.org/1999/xlink" x="0px" y="0px"
	 viewBox="0 0 512 512" style="enable-background:new 0 0 512 512;" xml:space="preserve">
<style type="text/css">
	.st0{fill:#B4BBCC;}
	.st1{fill:#FFFFFF;}
	.st2{opacity:0.1;enable-background:new    ;}
	.st3{display:none;fill:#A5EB78;}
</style>
<path class="st0" d="M398.8,62.1H113.2c-28.2,0-51.1,22.9-51.1,51.1v285.6c0,28.2,22.9,51.1,51.1,51.1h285.6
	c28.2,0,51.1-22.9,51.1-51.1V113.2C449.9,84.9,427.1,62.1,398.8,62.1z"/>
<path class="st1" d="M375.5,113.8H136.5c-12.6,0-22.7,10.2-22.7,22.7v238.9c0,12.6,10.2,22.7,22.7,22.7h238.9
	c12.6,0,22.7-10.2,22.7-22.7V136.5C398.2,124,388,113.8,375.5,113.8z"/>
<path class="st2" d="M136.7,159.4c0-12.6,10.2-22.7,22.7-22.7h238.7v-0.2c0-12.6-10.2-22.7-22.7-22.7H136.5
	c-12.6,0-22.7,10.2-22.7,22.7v238.9c0,12.6,10.2,22.7,22.7,22.7h0.2V159.4z"/>
<path class="st3" d="M236.9,371.3c-9.2,0-18.1-3.6-24.8-10.1L95.3,247.4c-14.1-13.7-14.4-36.2-0.6-50.3
	c13.7-14.1,36.2-14.4,50.3-0.6l85.4,83.2c34.2-48.7,105.5-134.4,226.9-212.1c16.6-10.6,38.6-5.8,49.2,10.8
	c10.6,16.6,5.8,38.6-10.8,49.2C332.6,231.9,269.1,351,268.5,352.2c-5.2,10-14.8,16.9-25.9,18.7C240.7,371.2,238.8,371.3,236.9,371.3
	z"/>
</svg>
